name C:\Users\u0101727\Documents\MyRepositories\predictivesimulations\OpenSimModel\subject1\EMG\EMG_gait_27.mot
datacolumns 25
datarows 20
range 3.36100000 3.38000000
endheader
time	HamL_r	TA_r	PerL_r	GL_r	HamM_r	Sol_r	VL_r	VM_r	PerB_l	TA_l	PerL_l	GL_l	GM_l	Sol_l	VL_l	VM_l	AddL_l	RF_l	TFL_l	GluMed_l	HamL_l	HamM_l	GluMed_r	RF_r	
          3.36100000	          0.00526991	          0.00428222	          0.04360846	          0.00381637	          0.00540130	          0.06780806	          0.00727650	          0.00356652	          0.00670247	          0.03267180	          0.00912036	          0.00666936	          0.02086910	          0.00634661	          0.02186923	          0.01550650	          0.01451772	          0.01794689	          0.00826976	          0.00655000	          0.02175304	          0.08416854	          0.00882065	          0.00458778	
          3.36200000	          0.00521578	          0.00427321	          0.04302363	          0.00381459	          0.00544439	          0.06695637	          0.00718075	          0.00356871	          0.00668550	          0.03326265	          0.00927507	          0.00672101	          0.02086546	          0.00636456	          0.02215805	          0.01575534	          0.01455380	          0.01807681	          0.00829163	          0.00660121	          0.02201433	          0.08488698	          0.00869243	          0.00450915	
          3.36300000	          0.00515865	          0.00426119	          0.04247248	          0.00381270	          0.00549068	          0.06610415	          0.00709024	          0.00357166	          0.00667256	          0.03388227	          0.00943394	          0.00677377	          0.02084242	          0.00638553	          0.02243383	          0.01599853	          0.01458001	          0.01818411	          0.00831615	          0.00665644	          0.02230090	          0.08554739	          0.00856287	          0.00443437	
          3.36400000	          0.00509899	          0.00424614	          0.04195523	          0.00381077	          0.00554009	          0.06525767	          0.00700504	          0.00357518	          0.00666375	          0.03452802	          0.00959632	          0.00682729	          0.02079883	          0.00640964	          0.02269572	          0.01623598	          0.01459650	          0.01826815	          0.00834356	          0.00671539	          0.02261174	          0.08614259	          0.00843248	          0.00436350	
          3.36500000	          0.00503732	          0.00422820	          0.04147173	          0.00380886	          0.00559250	          0.06442227	          0.00692518	          0.00357912	          0.00665914	          0.03519702	          0.00976145	          0.00688120	          0.02073394	          0.00643697	          0.02294310	          0.01646813	          0.01460351	          0.01832870	          0.00837411	          0.00677766	          0.02294582	          0.08666535	          0.00830185	          0.00429664	
          3.36600000	          0.00497407	          0.00420756	          0.04102139	          0.00380697	          0.00564777	          0.06360235	          0.00685069	          0.00358333	          0.00665875	          0.03588611	          0.00992849	          0.00693508	          0.02064741	          0.00646750	          0.02317554	          0.01669586	          0.01460138	          0.01836596	          0.00840805	          0.00684288	          0.02330214	          0.08710867	          0.00817159	          0.00423384	
          3.36700000	          0.00490966	          0.00418450	          0.04060320	          0.00380509	          0.00570582	          0.06280142	          0.00678158	          0.00358768	          0.00666253	          0.03659179	          0.01009654	          0.00698849	          0.02053926	          0.00650118	          0.02339267	          0.01692026	          0.01459049	          0.01838036	          0.00844562	          0.00691063	          0.02367990	          0.08746575	          0.00804228	          0.00417518	
          3.36800000	          0.00484445	          0.00415930	          0.04021569	          0.00380315	          0.00576656	          0.06202226	          0.00671783	          0.00359204	          0.00667033	          0.03731021	          0.01026458	          0.00704095	          0.02040987	          0.00653786	          0.02359410	          0.01714246	          0.01457126	          0.01837238	          0.00848704	          0.00698049	          0.02407839	          0.08773021	          0.00791447	          0.00412069	
          3.36900000	          0.00477874	          0.00413227	          0.03985713	          0.00380107	          0.00582993	          0.06126725	          0.00665935	          0.00359633	          0.00668194	          0.03803733	          0.01043159	          0.00709200	          0.02025989	          0.00657736	          0.02377941	          0.01736344	          0.01454414	          0.01834254	          0.00853252	          0.00705207	          0.02449685	          0.08789704	          0.00778863	          0.00407037	
          3.37000000	          0.00471280	          0.00410373	          0.03952573	          0.00379875	          0.00589590	          0.06053847	          0.00660595	          0.00360060	          0.00669706	          0.03876904	          0.01059657	          0.00714119	          0.02009011	          0.00661945	          0.02394830	          0.01758405	          0.01450970	          0.01829159	          0.00858235	          0.00712501	          0.02493439	          0.08796360	          0.00766517	          0.00402419	
          3.37100000	          0.00464690	          0.00407398	          0.03921981	          0.00379617	          0.00596442	          0.05983772	          0.00655738	          0.00360496	          0.00671533	          0.03950121	          0.01075854	          0.00718821	          0.01990133	          0.00666384	          0.02410069	          0.01780492	          0.01446872	          0.01822055	          0.00863684	          0.00719901	          0.02539005	          0.08792953	          0.00754440	          0.00398209	
          3.37200000	          0.00458128	          0.00404333	          0.03893779	          0.00379338	          0.00603542	          0.05916629	          0.00651328	          0.00360954	          0.00673634	          0.04022944	          0.01091652	          0.00723280	          0.01969435	          0.00671018	          0.02423678	          0.01802653	          0.01442218	          0.01813068	          0.00869633	          0.00727386	          0.02586279	          0.08779572	          0.00742657	          0.00394396	
          3.37300000	          0.00451621	          0.00401202	          0.03867814	          0.00379046	          0.00610876	          0.05852492	          0.00647324	          0.00361447	          0.00675964	          0.04094892	          0.01106944	          0.00727470	          0.01946997	          0.00675806	          0.02435703	          0.01824934	          0.01437108	          0.01802340	          0.00876111	          0.00734939	          0.02635140	          0.08756364	          0.00731186	          0.00390966	
          3.37400000	          0.00445192	          0.00398029	          0.03843937	          0.00378750	          0.00618424	          0.05791376	          0.00643677	          0.00361983	          0.00678477	          0.04165448	          0.01121625	          0.00731359	          0.01922894	          0.00680702	          0.02446214	          0.01847385	          0.01431639	          0.01790018	          0.00883141	          0.00742550	          0.02685440	          0.08723547	          0.00720039	          0.00387904	
          3.37500000	          0.00438865	          0.00394835	          0.03822037	          0.00378459	          0.00626163	          0.05733258	          0.00640334	          0.00362567	          0.00681139	          0.04234079	          0.01135588	          0.00734919	          0.01897193	          0.00685659	          0.02455296	          0.01870083	          0.01425901	          0.01776242	          0.00890735	          0.00750213	          0.02737013	          0.08681460	          0.00709222	          0.00385192	
          3.37600000	          0.00432658	          0.00391638	          0.03802063	          0.00378180	          0.00634071	          0.05678087	          0.00637246	          0.00363204	          0.00683928	          0.04300295	          0.01148743	          0.00738124	          0.01869962	          0.00690636	          0.02463044	          0.01893144	          0.01419981	          0.01761146	          0.00898903	          0.00757922	          0.02789691	          0.08630569	          0.00698732	          0.00382814	
          3.37700000	          0.00426589	          0.00388457	          0.03784028	          0.00377916	          0.00642119	          0.05625818	          0.00634366	          0.00363899	          0.00686830	          0.04363670	          0.01161015	          0.00740943	          0.01841276	          0.00695593	          0.02469548	          0.01916717	          0.01413960	          0.01744859	          0.00907649	          0.00765666	          0.02843335	          0.08571431	          0.00688564	          0.00380753	
          3.37800000	          0.00420671	          0.00385310	          0.03767959	          0.00377671	          0.00650277	          0.05576469	          0.00631647	          0.00364653	          0.00689837	          0.04423842	          0.01172340	          0.00743351	          0.01811239	          0.00700501	          0.02474879	          0.01940953	          0.01407908	          0.01727506	          0.00916971	          0.00773425	          0.02897844	          0.08504640	          0.00678708	          0.00378987	
          3.37900000	          0.00414918	          0.00382220	          0.03753868	          0.00377445	          0.00658505	          0.05530145	          0.00629043	          0.00365466	          0.00692939	          0.04480515	          0.01182665	          0.00745326	          0.01779983	          0.00705334	          0.02479083	          0.01965991	          0.01401886	          0.01709196	          0.00926859	          0.00781177	          0.02953142	          0.08430790	          0.00669166	          0.00377497	
          3.38000000	          0.00409339	          0.00379213	          0.03741769	          0.00377235	          0.00666758	          0.05487025	          0.00626516	          0.00366336	          0.00696127	          0.04533478	          0.01191961	          0.00746855	          0.01747658	          0.00710079	          0.02482191	          0.01991946	          0.01395947	          0.01690025	          0.00937296	          0.00788893	          0.03009157	          0.08350440	          0.00659945	          0.00376266	
